PathFileType	4	(X/Y/Z)	Kaydara	
DataRate	CameraRate	NumFrames	NumMarkers	Units	OrigDataRate	OrigDataStartFrame	OrigNumFrames	
240.00	240.00	4	72	mm	240.00	225	359	
Frame#	Time	Hips			RightUpLeg			RightLeg			RightFoot			RightFoot_End			LeftUpLeg			LeftLeg			LeftFoot			LeftFoot_End			Spine			Spine1			Spine2			Spine3			Neck			Head			Head_End			RightShoulder			RightArm			RightForeArm			RightHand			RightHandThumb1			RightHandThumb2			RightHandThumb3			RightHandThumb3_End			RightInHandIndex			RightHandIndex1			RightHandIndex2			RightHandIndex3			RightHandIndex3_End			RightInHandMiddle			RightHandMiddle1			RightHandMiddle2			RightHandMiddle3			RightHandMiddle3_End			RightInHandRing			RightHandRing1			RightHandRing2			RightHandRing3			RightHandRing3_End			RightInHandPinky			RightHandPinky1			RightHandPinky2			RightHandPinky3			RightHandPinky3_End			LeftShoulder			LeftArm			LeftForeArm			LeftHand			LeftHandThumb1			LeftHandThumb2			LeftHandThumb3			LeftHandThumb3_End			LeftInHandIndex			LeftHandIndex1			LeftHandIndex2			LeftHandIndex3			LeftHandIndex3_End			LeftInHandMiddle			LeftHandMiddle1			LeftHandMiddle2			LeftHandMiddle3			LeftHandMiddle3_End			LeftInHandRing			LeftHandRing1			LeftHandRing2			LeftHandRing3			LeftHandRing3_End			LeftInHandPinky			LeftHandPinky1			LeftHandPinky2			LeftHandPinky3			LeftHandPinky3_End			
		X1	Y1	Z1	X2	Y2	Z2	X3	Y3	Z3	X4	Y4	Z4	X5	Y5	Z5	X6	Y6	Z6	X7	Y7	Z7	X8	Y8	Z8	X9	Y9	Z9	X10	Y10	Z10	X11	Y11	Z11	X12	Y12	Z12	X13	Y13	Z13	X14	Y14	Z14	X15	Y15	Z15	X16	Y16	Z16	X17	Y17	Z17	X18	Y18	Z18	X19	Y19	Z19	X20	Y20	Z20	X21	Y21	Z21	X22	Y22	Z22	X23	Y23	Z23	X24	Y24	Z24	X25	Y25	Z25	X26	Y26	Z26	X27	Y27	Z27	X28	Y28	Z28	X29	Y29	Z29	X30	Y30	Z30	X31	Y31	Z31	X32	Y32	Z32	X33	Y33	Z33	X34	Y34	Z34	X35	Y35	Z35	X36	Y36	Z36	X37	Y37	Z37	X38	Y38	Z38	X39	Y39	Z39	X40	Y40	Z40	X41	Y41	Z41	X42	Y42	Z42	X43	Y43	Z43	X44	Y44	Z44	X45	Y45	Z45	X46	Y46	Z46	X47	Y47	Z47	X48	Y48	Z48	X49	Y49	Z49	X50	Y50	Z50	X51	Y51	Z51	X52	Y52	Z52	X53	Y53	Z53	X54	Y54	Z54	X55	Y55	Z55	X56	Y56	Z56	X57	Y57	Z57	X58	Y58	Z58	X59	Y59	Z59	X60	Y60	Z60	X61	Y61	Z61	X62	Y62	Z62	X63	Y63	Z63	X64	Y64	Z64	X65	Y65	Z65	X66	Y66	Z66	X67	Y67	Z67	X68	Y68	Z68	X69	Y69	Z69	X70	Y70	Z70	X71	Y71	Z71	X72	Y72	Z72	

225	0.933	5198.941	914.58397	126.699	5248.798312663004	891.440872454	51.92780529659071	5151.729025594706	496.6721153007266	-49.119832412543246	5141.913623423691	105.51852954942682	-126.64302183832598	4990.66546449127	28.651694221250153	-38.589439989613126	5162.86584414396	911.4712976430509	213.21203687542956	5071.4173954385715	508.9397135984348	283.9515778321374	4994.255617270186	83.8197258624453	365.95619522630034	4873.375067922524	0.8565423838771045	243.30768405454972	5134.881356649659	1032.7153916553316	77.67825876462213	5073.995913931711	1088.9904618290916	27.083244331439523	5007.572957726266	1140.675987879542	-29.06321632878676	4940.10302308518	1179.0104544201401	-87.54137294145998	4866.919920341418	1220.3563770724975	-148.46740781898643	4798.817809974596	1258.5551329523812	-201.51520077423575	4662.4026285832315	1338.1440946195085	-219.36956011693107	4907.258600887106	1200.4013925770023	-151.39045570765683	4942.232430656962	1158.121901223391	-248.04306754758176	4978.812149180859	950.3378454853568	-189.98321256555099	4943.977118343549	839.193301501861	-318.1288060120196	4957.605969515616	865.1230494470321	-326.85925473065316	4958.984724813511	871.669871007006	-345.21616262996747	4958.491645161043	871.2648277211499	-359.336220779961	4956.837371527283	866.6803733172674	-372.25067475278377	4954.629715717039	850.3842183763813	-332.1032199361087	4961.262922903036	846.1392064085034	-359.9212758003855	4960.629200880654	839.5653492848681	-381.1352016568648	4958.022687276894	837.8647187511347	-392.09514884766844	4954.372857494511	838.0667654943488	-399.6633374848326	4950.196715441478	836.8579558682669	-334.85770846375624	4954.270232364676	825.4021703834526	-363.4799749259943	4952.965717884916	816.4532693799117	-386.9041247385796	4949.526888415638	813.5495160308976	-400.25911073750973	4945.390305066568	813.3564006696264	-408.6043516925681	4946.940658521008	827.4134379263487	-336.08931300537375	4947.896876599402	808.9583554312904	-362.7963379686989	4946.126391925195	799.3617226257041	-383.44947935900996	4942.472956441271	795.6066572545585	-396.4570481372924	4938.424104214689	794.9729239590595	-404.363206176966	4942.640215033061	816.6238501983665	-336.7388695826104	4941.0196106313115	793.0554559441829	-361.62849884292416	4938.609091068166	782.6481674247337	-378.41940626866597	4935.464017835706	778.5921624664795	-388.02938878634086	4931.601008715184	777.2728090119917	-395.1032909846733	4875.291208203027	1213.1822670003558	-104.00349054126342	4837.963367608169	1192.4477868466258	-3.211796581355964	4931.5048905233525	1015.3212662794283	-88.21410633007295	4926.0160683386375	875.8855503056433	-247.3581510728388	4939.489301801079	895.0479710754547	-251.90838461392391	4950.188319686235	887.3371890627376	-256.5232590310258	4956.039444022707	877.638762733197	-261.3608205582253	4959.548794524752	865.8505780229708	-266.78277314279404	4934.947025652275	882.8392866298943	-258.8063737671888	4942.853542561378	870.6969857933123	-279.4678065194339	4948.590850728804	853.9668140948527	-290.3220128214617	4952.976367672332	843.4888423215938	-292.20972098763053	4957.158454583211	834.7644003360991	-290.4937212447381	4930.332151081879	871.0951505424528	-262.33610693588395	4935.54767648319	852.901871705527	-284.3988857143277	4941.173947296905	833.1253579374389	-296.63730409169256	4946.160546251926	819.7543931376927	-299.10396118631854	4950.588541291426	809.8535511579223	-297.3183242965921	4926.858711277901	863.1611370612046	-264.3531259677434	4928.484685620709	840.1251638458035	-286.02447475562815	4932.732175622794	821.3617848876988	-297.0592326254677	4937.193567464899	807.6539854541146	-299.63378253118304	4941.1918164314375	797.9606487953572	-298.04735880257306	4922.715111824236	853.9481369482626	-265.6813680565828	4921.616667415456	827.3150453845121	-286.55321417582275	4923.986853867836	810.0092100959043	-295.8682226762591	4926.742258792013	798.9073769638832	-297.9777141184381	4929.997018159865	789.6856885506082	-296.7056879271345
226	0.938	5198.941	914.58397	126.699	5248.67814609862	891.3593846280972	51.885857220702185	5151.636858832657	496.6253760130494	-49.32077471948559	5141.916837670522	105.48527415072599	-126.90420743356128	4990.672575987128	28.62042843285618	-38.84221524234798	5162.974530009166	911.5453045579435	213.25031422117112	5071.593722005204	508.9891102820845	283.93624720838824	4994.33715663151	83.8475197667913	365.72167977754697	4873.468260575115	0.8732808272635404	243.06924041277534	5134.937969052051	1032.7527713701334	77.69694052800216	5074.092045591556	1089.0738983872382	27.10292242057121	5007.702013363675	1140.8044465627154	-29.043351832234492	4940.239463127064	1179.1636683130885	-87.51542942070104	4867.062345750906	1220.5312932189142	-148.43571256070987	4798.965446811597	1258.7489319715653	-201.47797658941144	4662.512391675806	1338.2827594500416	-219.3428255423004	4907.359747805842	1200.4758029058146	-151.38901520991053	4942.09771902594	1157.674461284801	-248.072927526319	4977.811880035371	950.3002879219089	-188.61254286627567	4941.403532049892	838.4382713933654	-315.93681807355665	4955.37219047316	864.2313265565253	-325.30682232054613	4956.590924693215	870.481568706414	-344.09992783433455	4955.906998128694	869.8623239569605	-358.4332680682962	4954.025692311115	865.0927431810793	-371.4481175487418	4952.171381587145	849.4636230676662	-330.2851284765839	4958.560911155065	844.8889001521208	-358.33885654349035	4957.603109191698	838.0260900907418	-379.7166238940038	4954.793900986239	836.1449813531116	-390.83376318991327	4950.975482043514	836.1970823696229	-398.5693828190251	4947.523541548172	835.9251647152557	-332.7852991754113	4951.243219775705	824.1412093042393	-361.49987280079023	4949.557319344067	814.8763890343249	-385.06848478238334	4945.86063002146	811.7546007770161	-398.59664767948124	4941.533105798133	811.3972741663882	-407.1170819767675	4944.122919853323	826.4809325213482	-333.83067125958985	4944.639464406061	807.7334216647074	-360.4571699141887	4942.508745477503	797.8613166248296	-381.201005801377	4938.591811156639	793.8958776374786	-394.3569141316208	4934.3564261964475	793.1077155134537	-402.41893492194333	4939.655029721803	815.697377882809	-334.2630342508251	4937.531210221613	791.8660221741624	-358.9431605798673	4934.790740655807	781.2392366242831	-375.7521018104257	4931.43340133889	777.0303119674799	-385.44387627550503	4927.3936045916635	775.5744632602671	-392.6406497506592	4875.4730787580265	1213.4459472099409	-103.945684856886	4838.294237447926	1193.085076886856	-2.9061855868591002	4931.300343195033	1015.4881262242234	-87.36535902026846	4923.586972215841	874.9482663089888	-244.89847683891054	4937.3445588184695	894.1421620355852	-249.71402616869238	4948.044607881446	886.4349856453379	-254.0551517273026	4953.812530914699	876.7205225588616	-258.62698340961265	4957.18072907428	864.9031015314141	-263.76317003777046	4932.5316396005155	881.8666467716686	-256.40031283506954	4940.130099601988	869.6155068160989	-276.7216346555724	4945.631148478021	852.8268476397694	-287.16215521636946	4949.950035872948	842.3455391755328	-288.78307822941326	4954.13110663167	833.6406117093985	-286.83978707738504	4927.698199705779	870.0766722127537	-259.7292349374672	4932.49503991573	851.7524361335066	-281.35171121335327	4937.835637494105	831.9064271063042	-293.11310178476884	4942.728477967695	818.5287143238693	-295.24560084291005	4947.148860316074	808.6479012448015	-293.2052905514244	4924.077816931768	862.1127332269414	-261.6142987021738	4925.199874380601	838.9324878879038	-282.7801261297711	4929.17055135984	820.1029474816767	-293.373604359585	4933.526732474108	806.3856707979446	-295.6122900003001	4937.510822896262	796.7097599338765	-293.77999177312716	4919.776836677322	852.8709013114782	-262.7905503942213	4918.1177775113365	826.0866069759304	-283.1090804491645	4920.225101816845	808.7197038418678	-292.0331404775606	4922.883835438982	797.6070454390739	-293.87946851762246	4926.114582849171	788.398541734809	-292.3791732044
227	0.942	5198.941	914.58397	126.699	5248.557247130863	891.2772038411827	51.84373039351678	5151.544557855679	496.5771308891497	-49.51920207825523	5141.919858104576	105.45014822465987	-127.16116028817908	4990.67944713145	28.58732980565665	-39.090802889673355	5163.0836781606195	911.6198495349066	213.28875789951667	5071.770468112799	509.0396539228214	283.9244431437714	4994.416611970059	83.87697120686414	365.49050390114235	4873.559152861586	0.8920813303898283	242.83407967631413	5134.99581934856	1032.790877374995	77.71568754399865	5074.190156443778	1089.1578026824789	27.121486397622956	5007.834001755555	1140.9331397138535	-29.025913800728723	4940.38011293519	1179.3173847680202	-87.49315266942973	4867.210167898105	1220.707071580008	-148.40880960653047	4799.119404440094	1258.9440169315917	-201.44637768645276	4662.628715981237	1338.4249883654363	-219.3154776340863	4907.465904823685	1200.5501522235306	-151.39187332942876	4941.9658289361805	1157.2150470488903	-248.100212150364	4976.793643526491	950.2556482120643	-187.2351501689423	4938.805696244975	837.6750182956417	-313.6312286696505	4953.0857693172475	863.3050597188802	-323.635894230289	4954.123451025932	869.2527306283473	-342.8401181258645	4953.237501205936	868.4186426501656	-357.3670934391776	4951.12281441888	863.4664211259774	-370.464093073971	4949.670212197618	848.5174297650605	-328.3414671566162	4955.8006468992	843.6051544837708	-356.5993026743961	4954.508180376779	836.4548606780481	-378.1125564532363	4951.488146044183	834.3957210474265	-389.36997913004893	4947.493361232404	834.3009366518892	-397.25951980495427	4944.817513567098	834.9769813049206	-330.5821807631559	4948.173714359566	822.8627259988594	-359.3554962414016	4946.09624523599	813.2849703526565	-383.03704566338945	4942.132541739445	809.9487623451661	-396.71770560472424	4937.6058864557	809.43089512056	-405.3984147466293	4941.279790371737	825.5403965028579	-331.43853931478515	4941.35455492968	806.5047960644262	-357.95214596958743	4938.8561388184025	796.361234684751	-378.7586550818359	4934.667625651061	792.1896606991714	-392.04266660008454	4930.238362552614	791.2508771988278	-400.24638604616064	4936.653359097035	814.7719713029477	-331.6510686240989	4934.029938586751	790.687075200737	-356.09051734708396	4930.955755521679	779.8461975907449	-372.89434578572894	4927.381326807462	775.48850389439	-382.65280913030733	4923.1588515603025	773.9001421692632	-389.9597096393835	4875.6599473633005	1213.7111934981017	-103.89242002187385	4838.630703640644	1193.7362877031821	-2.602758986264894	4931.075738717277	1015.6596894569271	-86.49541396297829	4921.193648162729	874.0114505795624	-242.33193353339544	4935.222988944233	893.2162343528946	-247.4212637191158	4945.935141314994	885.5108591270352	-251.49839504813144	4951.630814276516	875.7818198994114	-255.80884762412606	4954.869761911255	863.9387047253698	-260.66080592495535	4930.148394610316	880.8804144107206	-253.8870144499801	4937.451734024077	868.5147663514473	-273.8623057730746	4942.733499890763	851.6707553557775	-283.8895871946935	4946.997045191088	841.1901727229313	-285.2489578875667	4951.186937054992	832.5095476700958	-283.08604896639935	4925.105132061446	869.0525256936392	-257.00890565451346	4929.500631414699	850.5960872541294	-278.1819400537393	4934.575201829971	830.6850774215911	-289.4659943606484	4939.388439930302	817.3060327663608	-291.2702667424211	4943.812234975174	807.4507376838654	-288.9834937686156	4921.343595689862	861.0643491261748	-258.75770739331057	4921.982138449074	837.7434916353769	-279.4058983758813	4925.694245660646	818.8528062790897	-289.5570298406026	4929.959465337877	805.1318603086065	-291.465148569599	4933.940045631105	795.4788129714742	-289.3944951037806	4916.891983090755	851.800840626319	-259.77767669996564	4914.6949945599345	824.8729243255461	-279.5289177999416	4916.555723487326	807.4506695588755	-288.0599827528114	4919.128981456973	796.3322441886743	-289.64643464471334	4922.345611318488	787.1422151897892	-287.924199187374
228	0.946	5198.941	914.58397	126.699	5248.4356337460595	891.194295648866	51.80144367175682	5151.452095660792	496.52730261205653	-49.71488878266106	5141.922713367661	105.41305275488189	-127.41356911378469	4990.68610393281	28.55228866748099	-39.33490535933638	5163.193269694523	911.6949734926752	213.3273646164026	5071.947499160515	509.0914277068497	283.9162556266179	4994.493847936526	83.90818544404667	365.2628667485917	4873.647605834998	0.9130545658590989	242.6024008300251	5135.054910816027	1032.8296823126907	77.73442948887865	5074.290217402538	1089.2420508742998	27.138802488163655	5007.968874141653	1141.0618476029924	-29.011096384289498	4940.524950668726	1179.4713427443892	-87.47479134866904	4867.3633929967455	1220.883417373955	-148.38700034867324	4799.27971529935	1259.1400723574852	-201.4207508743184	4662.751769171523	1338.570694808842	-219.28783951277663	4907.577042754841	1200.6241415840457	-151.39924907780426	4941.8365620714	1156.7433540944953	-248.1245770719533	4975.757413350341	950.2039014826798	-185.85137844388478	4936.185222511407	836.9047905989265	-311.20910643238534	4950.7470187649815	862.3451426719395	-321.8420439702738	4951.582554087357	867.984553828684	-341.43064799500485	4950.483572316834	866.9352806774331	-356.1305547254837	4948.129476153389	861.8032297627649	-369.2906626936376	4947.12708330462	847.5467751289698	-326.26805099781365	4952.982987751844	842.2894462894078	-354.696771366006	4951.34565814775	834.8535996284426	-376.3158696404064	4948.1069544771535	832.6191883524574	-387.69584208957616	4943.928298290955	832.3808538457811	-395.7250943525237	4942.080101083377	834.0147820974349	-328.24448802645543	4945.063489097078	821.5685584169861	-357.0415360373871	4942.584768759922	811.681385904787	-380.8031413486713	4938.345282476675	808.134764434363	-394.61464603602803	4933.611621101127	807.4603353056914	-403.4399571912602	4938.413156992452	824.5933654305823	-328.9093218665163	4938.044661445877	805.2745610969484	-355.2766158773687	4935.171601422125	794.8640560393574	-376.11664504141845	4930.703844039415	790.4909793002761	-389.50761231371257	4926.073673907374	789.4056792916025	-397.8381698186782	4933.637592646369	813.8493524294103	-328.89972336289804	4930.519060568857	789.5209481522917	-353.06657055338155	4927.10793628082	778.4718269088665	-369.8413169205086	4923.311956515615	773.9698240341005	-379.65074202790777	4918.901226352282	772.2532077004676	-387.05443164257497	4875.851837470031	1213.9777373990216	-103.84404672552768	4838.972829588286	1194.4016699944384	-2.302266262681574	4930.830658307728	1015.8364186315745	-85.60338346284438	4918.839294131561	873.0765776259677	-239.6565455112853	4933.126726949691	892.2711842588682	-245.02773918755452	4943.8619311700895	884.5657887706063	-248.85130087590588	4949.496442489329	874.8237065995132	-252.90524898319285	4952.618346790483	862.9585721592285	-257.47500238988266	4927.80009270121	879.8818187308192	-251.2641967156461	4934.821624841924	867.3960430719025	-270.8876909500397	4939.90153623225	850.4999877050984	-280.5027898702619	4944.121201170199	840.0243030290219	-281.60643817295966	4948.329823548494	831.3728608917493	-279.23222627843137	4922.556353317896	868.0241745263747	-254.17301175476493	4926.568550047821	849.4344636029625	-274.8877083886515	4931.39731146664	829.4631658097306	-285.69480680863614	4936.145351278794	816.0883524677221	-287.17751536700956	4940.583681690472	806.2641730241656	-284.65319737569905	4918.659868832286	860.017611777532	-255.78135942681254	4918.836281040409	836.5600984096925	-275.90010289979136	4922.308639625853	817.6135063027531	-285.6084442130894	4926.497428434046	803.8948575250396	-287.19201136583797	4930.48525842693	794.2702213976029	-284.89119250358664	4914.06484411466	850.739775457067	-256.64091923478804	4911.353801881028	823.6762063057874	-275.81126323106923	4912.984784303169	806.2045412747689	-283.9478211040635	4915.484025170724	795.085545900554	-285.2782247953908	4918.696563813473	785.9193922604726	-283.3409819794816
